<svg width="150" height="40" viewBox="10 12 150 24" fill="none" xmlns="http://www.w3.org/2000/svg">
<path d="M25.0553 10.7164C25.3406 10.1184 25.087 9.40238 24.4888 9.11714C23.8907 8.83191 23.1745 9.08546 22.8892 9.68347L11.6966 33.144C10.7233 35.1843 11.5885 37.6272 13.6292 38.6003C15.67 39.5735 18.1134 38.7084 19.0867 36.6682L23.3872 27.6541L25.648 22.8112C25.9308 22.2067 26.538 21.8205 27.2056 21.8205C27.8731 21.8205 28.4803 22.2067 28.7632 22.8112L31.0289 27.6541H31.0287L32.5858 30.9178L34.1428 34.1815C34.5428 35.02 34.1831 36.026 33.3392 36.4284C32.4953 36.8308 31.4869 36.4773 31.0869 35.6388L27.566 28.3651C27.2787 27.7716 26.5658 27.5214 25.9705 27.8053C25.3703 28.0915 25.1177 28.8113 25.4073 29.4096L28.9222 36.671C29.889 38.6974 32.326 39.5518 34.3654 38.5793C36.4047 37.6068 37.2742 35.1757 36.3074 33.1492L31.0662 22.1633C30.4949 20.5911 28.9874 19.4682 27.2173 19.4682C25.5663 19.4682 24.1436 20.4452 23.4961 21.8526L16.9207 35.6352C16.5179 36.4795 15.5069 36.8374 14.6624 36.4347C13.818 36.0321 13.4599 35.0212 13.8627 34.177L25.0553 10.7164Z" fill="#0A80FF"/>
<path d="M52.361 33.7606C52.0412 33.7606 51.7584 33.5588 51.6625 33.262L50.6755 30.2101H45.5904L44.6221 33.2586C44.5273 33.5571 44.2436 33.7606 43.9224 33.7606H42.7329C42.2325 33.7606 41.8795 33.2833 42.0385 32.8218L46.3456 20.3237C46.4456 20.0334 46.7252 19.8378 47.0399 19.8378H49.3475C49.6629 19.8378 49.9429 20.0343 50.0424 20.3255L54.3127 32.8236C54.4702 33.2847 54.1173 33.7606 53.6177 33.7606H52.361ZM48.1739 22.2314H48.0714L46.2465 27.9561H50.0193L48.1739 22.2314Z" fill="#22242C"/>
<path d="M56.5782 19.7124C56.5782 19.3189 56.9061 19 57.3105 19H58.4705C58.8749 19 59.2028 19.3189 59.2028 19.7124V25.0638H59.2848C59.4762 24.4654 59.8384 23.9934 60.3715 23.6476C60.9046 23.2886 61.5266 23.109 62.2374 23.109C63.6044 23.109 64.6433 23.5811 65.3541 24.5253C66.0786 25.4561 66.4409 26.7926 66.4409 28.5346C66.4409 30.2899 66.0786 31.6396 65.3541 32.5838C64.6433 33.5279 63.6044 34 62.2374 34C61.5266 34 60.9046 33.8205 60.3715 33.4614C59.8521 33.1024 59.4898 32.6237 59.2848 32.0253H59.2028V33.0483C59.2028 33.4417 58.8749 33.7606 58.4705 33.7606H57.3105C56.9061 33.7606 56.5782 33.4417 56.5782 33.0483V19.7124ZM61.3968 31.8856C62.0802 31.8856 62.6339 31.6662 63.0576 31.2274C63.4814 30.7886 63.6933 30.1968 63.6933 29.4521V27.6569C63.6933 26.9122 63.4814 26.3205 63.0576 25.8816C62.6339 25.4295 62.0802 25.2035 61.3968 25.2035C60.768 25.2035 60.2417 25.3564 59.8179 25.6622C59.4078 25.9681 59.2028 26.3737 59.2028 26.879V30.1902C59.2028 30.7354 59.4078 31.1543 59.8179 31.4468C60.2417 31.7394 60.768 31.8856 61.3968 31.8856Z" fill="#22242C"/>
<path d="M72.3792 34C71.3539 34 70.4927 33.8338 69.7956 33.5013C69.2984 33.2548 68.843 32.9439 68.4292 32.5689C68.1454 32.3117 68.1672 31.8795 68.445 31.6161L68.9973 31.0926C69.2976 30.8079 69.7781 30.8316 70.0961 31.0972C70.3339 31.2959 70.5823 31.4656 70.8413 31.6064C71.3198 31.859 71.8665 31.9854 72.4817 31.9854C73.1105 31.9854 73.5616 31.879 73.835 31.6662C74.122 31.4535 74.2656 31.1609 74.2656 30.7886C74.2656 30.4827 74.163 30.2434 73.958 30.0705C73.7666 29.8843 73.4317 29.758 72.9533 29.6915L71.8871 29.5519C70.7251 29.4056 69.8366 29.0864 69.2215 28.5944C68.62 28.0891 68.3193 27.3577 68.3193 26.4003C68.3193 25.8949 68.415 25.4428 68.6063 25.0439C68.7977 24.6316 69.0711 24.2859 69.4265 24.0066C69.7819 23.7141 70.2057 23.4947 70.6978 23.3484C71.2036 23.1888 71.764 23.109 72.3792 23.109C72.8986 23.109 73.3565 23.1489 73.753 23.2287C74.163 23.2952 74.5321 23.4016 74.8602 23.5479C75.1883 23.6809 75.489 23.8537 75.7624 24.0665C75.8493 24.1299 75.9356 24.196 76.0212 24.2649C76.3329 24.5156 76.3302 24.9702 76.0443 25.2484L75.5532 25.7261C75.2629 26.0085 74.7929 25.9977 74.4574 25.7676C74.2832 25.6483 74.0963 25.54 73.8965 25.4428C73.4591 25.2301 72.9806 25.1237 72.4612 25.1237C71.887 25.1237 71.4701 25.2234 71.2104 25.4229C70.9643 25.6223 70.8413 25.8816 70.8413 26.2008C70.8413 26.5465 70.9438 26.8125 71.1489 26.9987C71.3676 27.1715 71.7298 27.2979 72.2356 27.3777L73.3224 27.5173C75.6325 27.8364 76.7876 28.8604 76.7876 30.5891C76.7876 31.0944 76.6783 31.5598 76.4595 31.9854C76.2545 32.3976 75.9606 32.7566 75.5779 33.0625C75.1951 33.3551 74.7303 33.5878 74.1836 33.7606C73.6504 33.9202 73.049 34 72.3792 34Z" fill="#22242C"/>
<path d="M83.3495 34C82.584 34 81.8937 33.8737 81.2786 33.621C80.6771 33.3684 80.1577 33.0027 79.7202 32.5239C79.2965 32.0452 78.9684 31.4734 78.736 30.8085C78.5036 30.1303 78.3875 29.3723 78.3875 28.5346C78.3875 27.6968 78.5036 26.9455 78.736 26.2806C78.9684 25.6157 79.2965 25.0505 79.7202 24.5851C80.1577 24.1064 80.6771 23.7407 81.2786 23.488C81.8937 23.2354 82.584 23.109 83.3495 23.109C84.115 23.109 84.8054 23.2354 85.4205 23.488C86.0356 23.7407 86.5551 24.1064 86.9788 24.5851C87.4163 25.0505 87.7512 25.6157 87.9836 26.2806C88.2159 26.9455 88.3321 27.6968 88.3321 28.5346C88.3321 29.3723 88.2159 30.1303 87.9836 30.8085C87.7512 31.4734 87.4163 32.0452 86.9788 32.5239C86.5551 33.0027 86.0356 33.3684 85.4205 33.621C84.8054 33.8737 84.115 34 83.3495 34ZM83.3495 31.9455C84.0467 31.9455 84.5935 31.7394 84.9899 31.3271C85.3863 30.9149 85.5845 30.3098 85.5845 29.512V27.5771C85.5845 26.7926 85.3863 26.1941 84.9899 25.7819C84.5935 25.3697 84.0467 25.1636 83.3495 25.1636C82.6661 25.1636 82.1261 25.3697 81.7297 25.7819C81.3333 26.1941 81.1351 26.7926 81.1351 27.5771V29.512C81.1351 30.3098 81.3333 30.9149 81.7297 31.3271C82.1261 31.7394 82.6661 31.9455 83.3495 31.9455Z" fill="#22242C"/>
<path d="M93.2835 33.7606C92.3813 33.7606 91.7183 33.5412 91.2945 33.1024C90.8708 32.6636 90.6589 32.0452 90.6589 31.2473V19.7124C90.6589 19.3189 90.9868 19 91.3912 19H92.5512C92.9556 19 93.2835 19.3189 93.2835 19.7124V31.7261H93.966C94.3704 31.7261 94.6983 32.045 94.6983 32.4385V33.0483C94.6983 33.4417 94.3704 33.7606 93.966 33.7606H93.2835Z" fill="#22242C"/>
<path d="M103.084 32.0253H102.981C102.885 32.2912 102.755 32.5439 102.591 32.7832C102.441 33.0093 102.243 33.2154 101.997 33.4016C101.764 33.5878 101.477 33.734 101.136 33.8404C100.808 33.9468 100.425 34 99.9873 34C98.8801 34 98.0326 33.6476 97.4448 32.9428C96.857 32.238 96.5631 31.234 96.5631 29.9309V24.0608C96.5631 23.6674 96.8909 23.3484 97.2954 23.3484H98.4554C98.8598 23.3484 99.1877 23.6674 99.1877 24.0608V29.6715C99.1877 30.3896 99.3312 30.9415 99.6183 31.3271C99.9053 31.6995 100.363 31.8856 100.992 31.8856C101.252 31.8856 101.505 31.8524 101.751 31.7859C102.01 31.7194 102.236 31.6197 102.427 31.4867C102.619 31.3404 102.776 31.1676 102.899 30.9681C103.022 30.7553 103.084 30.5093 103.084 30.2301V24.0608C103.084 23.6674 103.411 23.3484 103.816 23.3484H104.976C105.38 23.3484 105.708 23.6674 105.708 24.0608V33.0483C105.708 33.4417 105.38 33.7606 104.976 33.7606H103.816C103.411 33.7606 103.084 33.4417 103.084 33.0483V32.0253Z" fill="#22242C"/>
<path d="M112.083 33.7606C111.181 33.7606 110.49 33.5346 110.012 33.0824C109.547 32.617 109.315 31.9588 109.315 31.1077V25.383H108.468C108.064 25.383 107.736 25.064 107.736 24.6706V24.0608C107.736 23.6673 108.064 23.3484 108.468 23.3484H108.556C108.952 23.3484 109.219 23.262 109.356 23.0891C109.506 22.9029 109.581 22.6303 109.581 22.2713V21.2084C109.581 20.815 109.909 20.496 110.313 20.496H111.207C111.611 20.496 111.939 20.815 111.939 21.2084V23.3484H113.401C113.805 23.3484 114.133 23.6674 114.133 24.0608V24.6706C114.133 25.064 113.805 25.383 113.401 25.383H111.939V31.7261H113.237C113.641 31.7261 113.969 32.045 113.969 32.4385V33.0483C113.969 33.4417 113.641 33.7606 113.237 33.7606H112.083Z" fill="#22242C"/>
<path d="M122.238 33.7606C121.833 33.7606 121.505 33.4417 121.505 33.0482V20.5501C121.505 20.1567 121.833 19.8377 122.238 19.8377H127.944C128.6 19.8377 129.188 19.9441 129.707 20.1569C130.24 20.3564 130.691 20.6489 131.06 21.0346C131.429 21.4069 131.71 21.859 131.901 22.3909C132.092 22.9228 132.188 23.508 132.188 24.1463C132.188 24.7978 132.092 25.3896 131.901 25.9215C131.71 26.4401 131.429 26.8923 131.06 27.2779C130.691 27.6502 130.24 27.9428 129.707 28.1556C129.188 28.355 128.6 28.4548 127.944 28.4548H124.212V33.0482C124.212 33.4417 123.884 33.7606 123.48 33.7606H122.238ZM124.212 26.1808H127.698C128.217 26.1808 128.627 26.0478 128.928 25.7819C129.229 25.5026 129.379 25.1103 129.379 24.605V23.6875C129.379 23.1822 129.229 22.7965 128.928 22.5306C128.627 22.2646 128.217 22.1316 127.698 22.1316H124.212V26.1808Z" fill="#22242C"/>
<path d="M140.259 34C139.316 34 138.462 33.8471 137.696 33.5412C136.931 33.2353 136.275 32.7766 135.728 32.1649C135.195 31.5532 134.778 30.8018 134.477 29.9109C134.176 29.0199 134.026 27.9827 134.026 26.7992C134.026 25.629 134.176 24.5984 134.477 23.7074C134.778 22.8032 135.195 22.0452 135.728 21.4335C136.275 20.8218 136.931 20.363 137.696 20.0572C138.462 19.7513 139.316 19.5984 140.259 19.5984C141.202 19.5984 142.057 19.7513 142.822 20.0572C143.588 20.363 144.244 20.8218 144.791 21.4335C145.338 22.0452 145.754 22.8032 146.042 23.7074C146.342 24.5984 146.493 25.629 146.493 26.7992C146.493 27.9827 146.342 29.0199 146.042 29.9109C145.754 30.8018 145.338 31.5532 144.791 32.1649C144.244 32.7766 143.588 33.2353 142.822 33.5412C142.057 33.8471 141.202 34 140.259 34ZM140.259 31.6662C141.284 31.6662 142.098 31.3338 142.699 30.6689C143.314 30.004 143.622 29.0731 143.622 27.8763V25.7221C143.622 24.5252 143.314 23.5944 142.699 22.9295C142.098 22.2646 141.284 21.9322 140.259 21.9322C139.234 21.9322 138.414 22.2646 137.799 22.9295C137.197 23.5944 136.896 24.5252 136.896 25.7221V27.8763C136.896 29.0731 137.197 30.004 137.799 30.6689C138.414 31.3338 139.234 31.6662 140.259 31.6662Z" fill="#22242C"/>
<path d="M153.628 34C152.398 34 151.352 33.7872 150.491 33.3617C149.853 33.0413 149.28 32.6457 148.774 32.1746C148.493 31.9132 148.516 31.4804 148.795 31.2176L149.563 30.4962C149.866 30.2112 150.35 30.2381 150.663 30.5125C151.007 30.8131 151.373 31.058 151.762 31.2473C152.377 31.5399 153.054 31.6861 153.792 31.6861C154.626 31.6861 155.255 31.5133 155.678 31.1675C156.102 30.8085 156.314 30.3298 156.314 29.7314C156.314 29.2659 156.177 28.8869 155.904 28.5944C155.63 28.3018 155.118 28.0891 154.366 27.9561L153.013 27.7566C150.156 27.3178 148.727 25.9681 148.727 23.7074C148.727 23.0824 148.843 22.5173 149.076 22.0119C149.322 21.5066 149.67 21.0744 150.122 20.7154C150.573 20.3564 151.113 20.0838 151.741 19.8976C152.384 19.6981 153.108 19.5984 153.915 19.5984C154.995 19.5984 155.938 19.7713 156.745 20.117C157.344 20.3742 157.88 20.7233 158.351 21.1644C158.629 21.4241 158.598 21.8526 158.318 22.1099L157.544 22.8214C157.234 23.1059 156.744 23.0684 156.419 22.8009C156.193 22.6153 155.946 22.452 155.678 22.3111C155.173 22.0452 154.537 21.9122 153.771 21.9122C152.992 21.9122 152.404 22.0585 152.008 22.351C151.625 22.6303 151.434 23.0292 151.434 23.5478C151.434 24.0798 151.591 24.4721 151.905 24.7247C152.22 24.9774 152.726 25.1635 153.423 25.2832L154.756 25.5226C156.205 25.7752 157.271 26.2274 157.954 26.879C158.651 27.5173 159 28.4149 159 29.5718C159 30.2367 158.877 30.8417 158.631 31.3869C158.399 31.9189 158.05 32.3843 157.585 32.7832C157.134 33.1689 156.574 33.4681 155.904 33.6808C155.248 33.8936 154.489 34 153.628 34Z" fill="#22242C"/>
</svg>
